<?xml version="1.0" encoding="UTF-8"?>
<svg version="1.1" xmlns="http://www.w3.org/2000/svg" width="72" height="72">
<path d="M0 0 C23.76 0 47.52 0 72 0 C72 23.76 72 47.52 72 72 C48.24 72 24.48 72 0 72 C0 48.24 0 24.48 0 0 Z " fill="#192C56" transform="translate(0,0)"/>
<path d="M0 0 C23.76 0 47.52 0 72 0 C72 23.76 72 47.52 72 72 C48.24 72 24.48 72 0 72 C0 48.24 0 24.48 0 0 Z M22 8 C21.66582071 11.6675213 21.66582071 11.6675213 22 15 C19.69 15 17.38 15 15 15 C15 17.31 15 19.62 15 22 C13.35 22 11.7 22 10 22 C10 31.24 10 40.48 10 50 C11.65 50 13.3 50 15 50 C15 51.65 15 53.3 15 55 C17.31 55 19.62 55 22 55 C21.90234375 56.953125 21.8046875 58.90625 21.70703125 60.859375 C22.10808312 63.78972735 22.88457666 64.91908035 25 67 C28.3363979 67.62002853 28.3363979 67.62002853 32.1875 67.53125 C32.88641357 67.5350769 33.58532715 67.53890381 34.30541992 67.54284668 C35.78142743 67.54556568 37.25748313 67.53820498 38.73339844 67.52148438 C40.99262921 67.50006987 43.24868061 67.52128135 45.5078125 67.546875 C46.94271535 67.54423172 48.37761622 67.53910671 49.8125 67.53125 C51.11832031 67.52673828 52.42414062 67.52222656 53.76953125 67.51757812 C57.00828354 67.32455292 57.00828354 67.32455292 58.676651 65.30761719 C60.27798853 62.51525176 60.38592419 60.7686074 60.40405273 57.56054688 C60.41673691 56.47261841 60.42942108 55.38468994 60.44248962 54.26379395 C60.43955399 53.09392944 60.43661835 51.92406494 60.43359375 50.71875 C60.4388356 49.51311401 60.44407745 48.30747803 60.44947815 47.06530762 C60.45590062 44.51669078 60.4545585 41.96804431 60.44604492 39.41943359 C60.43753219 35.51476433 60.46630077 31.61155606 60.49804688 27.70703125 C60.49965884 25.23177127 60.49908144 22.7565087 60.49609375 20.28125 C60.50732773 19.1113855 60.51856171 17.941521 60.53013611 16.73620605 C60.52075516 15.64827759 60.51137421 14.56034912 60.50170898 13.43945312 C60.50154282 12.4833313 60.50137665 11.52720947 60.50120544 10.54211426 C59.85014076 7.23991386 58.62203184 6.04947811 56 4 C52.78338961 3.38511454 52.78338961 3.38511454 49.1875 3.46875 C48.21139771 3.46300964 48.21139771 3.46300964 47.21557617 3.45715332 C45.84389696 3.45443924 44.47216556 3.46176547 43.10058594 3.47851562 C41.00598315 3.49993881 38.91480916 3.47870363 36.8203125 3.453125 C35.48436746 3.45576837 34.14842455 3.46089357 32.8125 3.46875 C31.60207031 3.47326172 30.39164063 3.47777344 29.14453125 3.48242188 C25.4101843 4.09708147 24.19739737 4.95765745 22 8 Z " fill="#1A2D57" transform="translate(0,0)"/>
<path d="M0 0 C0.65073486 -0.0038269 1.30146973 -0.00765381 1.97192383 -0.01159668 C3.34360304 -0.01431076 4.71533444 -0.00698453 6.08691406 0.00976562 C8.18151685 0.03118881 10.27269084 0.00995363 12.3671875 -0.015625 C13.70313254 -0.01298163 15.03907545 -0.00785643 16.375 0 C17.58542969 0.00451172 18.79585937 0.00902344 20.04296875 0.01367188 C23.86014094 0.64196419 24.81027617 1.54146801 27.1875 4.53125 C27.68870544 7.07336426 27.68870544 7.07336426 27.68920898 9.97070312 C27.69858994 11.05863159 27.70797089 12.14656006 27.71763611 13.26745605 C27.70640213 14.43732056 27.69516815 15.60718506 27.68359375 16.8125 C27.68504898 18.01813599 27.68650421 19.22377197 27.68800354 20.46594238 C27.68634378 23.01459164 27.67477409 25.56325084 27.65405273 28.11181641 C27.6251102 32.01638293 27.63344106 35.91959123 27.64648438 39.82421875 C27.64024675 42.29948578 27.63185562 44.77474851 27.62109375 47.25 C27.62402939 48.4198645 27.62696503 49.589729 27.62998962 50.79504395 C27.61096336 52.42693665 27.61096336 52.42693665 27.59155273 54.09179688 C27.58614975 55.0479187 27.58074677 56.00404053 27.57518005 56.98913574 C27.11639439 59.99750712 26.31981274 61.37893003 24.1875 63.53125 C20.95703125 64.04882812 20.95703125 64.04882812 17 64.0625 C16.30108643 64.0663269 15.60217285 64.07015381 14.88208008 64.07409668 C13.40607257 64.07681568 11.93001687 64.06945498 10.45410156 64.05273438 C8.19487079 64.03131987 5.93881939 64.05253135 3.6796875 64.078125 C2.24478465 64.07548172 0.80988378 64.07035671 -0.625 64.0625 C-1.93082031 64.05798828 -3.23664062 64.05347656 -4.58203125 64.04882812 C-7.8125 63.53125 -7.8125 63.53125 -9.75 61.73242188 C-11.2506436 58.62355177 -11.00854753 55.92940712 -10.8125 52.53125 C-9.8225 52.53125 -8.8325 52.53125 -7.8125 52.53125 C-7.8125 53.52125 -7.8125 54.51125 -7.8125 55.53125 C-2.8625 55.53125 2.0875 55.53125 7.1875 55.53125 C6.5275 57.51125 5.8675 59.49125 5.1875 61.53125 C7.6625 61.03625 7.6625 61.03625 10.1875 60.53125 C9.6925 58.05625 9.6925 58.05625 9.1875 55.53125 C14.1375 55.53125 19.0875 55.53125 24.1875 55.53125 C24.1875 40.35125 24.1875 25.17125 24.1875 9.53125 C13.6275 9.53125 3.0675 9.53125 -7.8125 9.53125 C-7.8125 10.19125 -7.8125 10.85125 -7.8125 11.53125 C-8.8025 11.53125 -9.7925 11.53125 -10.8125 11.53125 C-11.29913421 5.20500523 -11.29913421 5.20500523 -9.22265625 2.33007812 C-6.01743755 -0.0621475 -3.9760451 0.01482019 0 0 Z " fill="#CBCBD4" transform="translate(32.8125,3.46875)"/>
<path d="M0 0 C4.62 0 9.24 0 14 0 C14 1.32 14 2.64 14 4 C16.31 4 18.62 4 21 4 C21 6.64 21 9.28 21 12 C18.69 12 16.38 12 14 12 C14 10.02 14 8.04 14 6 C9.71 6 5.42 6 1 6 C1 14.25 1 22.5 1 31 C5.29 31 9.58 31 14 31 C14 29.35 14 27.7 14 26 C16.31 26 18.62 26 21 26 C21 28.31 21 30.62 21 33 C18.69 33 16.38 33 14 33 C14 34.65 14 36.3 14 38 C9.38 38 4.76 38 0 38 C0 36.35 0 34.7 0 33 C-1.65 33 -3.3 33 -5 33 C-5 23.76 -5 14.52 -5 5 C-3.35 5 -1.7 5 0 5 C0 3.35 0 1.7 0 0 Z " fill="#E7E4E9" transform="translate(15,17)"/>
<path d="M0 0 C0.33 0 0.66 0 1 0 C1.1932575 7.36867353 1.37074572 14.7376041 1.53710938 22.10693359 C1.59562166 24.61548523 1.65778607 27.12395439 1.72363281 29.63232422 C1.81748185 33.23129257 1.89832767 36.83035017 1.9765625 40.4296875 C2.00875885 41.55680145 2.0409552 42.68391541 2.0741272 43.84518433 C2.10438492 45.40657639 2.10438492 45.40657639 2.13525391 46.99951172 C2.15746002 47.91884491 2.17966614 48.8381781 2.20254517 49.78536987 C2 52 2 52 0 54 C-4.54194989 54.42335086 -9.09851304 54.37159332 -13.65795898 54.37060547 C-15.92573197 54.37497731 -18.19155619 54.41128459 -20.45898438 54.44921875 C-21.89843084 54.45508722 -23.33788655 54.45905641 -24.77734375 54.4609375 C-26.74562134 54.47326416 -26.74562134 54.47326416 -28.75366211 54.48583984 C-32 54 -32 54 -33.93969727 52.20556641 C-35.43552026 49.0940617 -35.19609019 46.39889662 -35 43 C-34.01 43 -33.02 43 -32 43 C-32 43.99 -32 44.98 -32 46 C-27.05 46 -22.1 46 -17 46 C-17.66 47.98 -18.32 49.96 -19 52 C-16.525 51.505 -16.525 51.505 -14 51 C-14.495 48.525 -14.495 48.525 -15 46 C-10.05 46 -5.1 46 0 46 C0 30.82 0 15.64 0 0 Z " fill="#D5D4DC" transform="translate(57,13)"/>
<path d="M0 0 C2.31 0 4.62 0 7 0 C7 2.31 7 4.62 7 7 C4.69 7 2.38 7 0 7 C0 8.65 0 10.3 0 12 C-4.62 12 -9.24 12 -14 12 C-14 7 -14 7 -13 5 C-8.71 5 -4.42 5 0 5 C0 3.35 0 1.7 0 0 Z " fill="#DEDCE2" transform="translate(29,43)"/>
<path d="M0 0 C1.65 0 3.3 0 5 0 C5.02505615 0.77714355 5.0501123 1.55428711 5.07592773 2.35498047 C5.19166796 5.86183069 5.31449352 9.36839745 5.4375 12.875 C5.47681641 14.09832031 5.51613281 15.32164063 5.55664062 16.58203125 C5.61948242 18.33193359 5.61948242 18.33193359 5.68359375 20.1171875 C5.72025146 21.19597168 5.75690918 22.27475586 5.79467773 23.38623047 C5.83376643 25.98069536 5.83376643 25.98069536 7 28 C4.69 28 2.38 28 0 28 C0 18.76 0 9.52 0 0 Z " fill="#E1E0E5" transform="translate(10,22)"/>
<path d="M0 0 C0.99 0 1.98 0 3 0 C3 0.99 3 1.98 3 3 C7.95 3 12.9 3 18 3 C17.34 4.98 16.68 6.96 16 9 C16.66 9.33 17.32 9.66 18 10 C15.56292912 10.2757817 13.12904951 10.52131492 10.6875 10.75 C9.99720703 10.83121094 9.30691406 10.91242188 8.59570312 10.99609375 C6.57421875 11.171875 6.57421875 11.171875 3 11 C1.03125 9.25 1.03125 9.25 0 7 C-0.1875 3.25 -0.1875 3.25 0 0 Z " fill="#DCDBE1" transform="translate(22,56)"/>
<path d="M0 0 C1.45880109 0.14107747 2.91703551 0.28802415 4.375 0.4375 C5.59316406 0.55931641 5.59316406 0.55931641 6.8359375 0.68359375 C9 1 9 1 11 2 C11 2.99 11 3.98 11 5 C10.01 5.495 10.01 5.495 9 6 C16.92 6.33 24.84 6.66 33 7 C33 7.33 33 7.66 33 8 C22.44 8 11.88 8 1 8 C1 8.66 1 9.32 1 10 C0.01 10 -0.98 10 -2 10 C-2.25 3.375 -2.25 3.375 0 0 Z " fill="#C9CAD3" transform="translate(24,5)"/>
<path d="M0 0 C10.56 0 21.12 0 32 0 C32 0.33 32 0.66 32 1 C27.38 1.33 22.76 1.66 18 2 C18.33 3.32 18.66 4.64 19 6 C17.125 7.0625 17.125 7.0625 15 8 C14.34 7.67 13.68 7.34 13 7 C13.33 5.35 13.66 3.7 14 2 C7.07 1.505 7.07 1.505 0 1 C0 0.67 0 0.34 0 0 Z " fill="#B7BAC6" transform="translate(25,58)"/>
<path d="M0 0 C2.31 0 4.62 0 7 0 C7 2.31 7 4.62 7 7 C0.4 6.67 -6.2 6.34 -13 6 C-13 5.67 -13 5.34 -13 5 C-8.71 5 -4.42 5 0 5 C0 3.35 0 1.7 0 0 Z " fill="#CDCED6" transform="translate(29,43)"/>
<path d="M0 0 C2.31 0 4.62 0 7 0 C7 2.64 7 5.28 7 8 C4.69 8 2.38 8 0 8 C0 6.02 0 4.04 0 2 C1.65 2 3.3 2 5 2 C5.33 3.65 5.66 5.3 6 7 C6 5.02 6 3.04 6 1 C4.02 1 2.04 1 0 1 C0 0.67 0 0.34 0 0 Z " fill="#B0B4C2" transform="translate(29,21)"/>
<path d="M0 0 C6.6 0 13.2 0 20 0 C20 0.66 20 1.32 20 2 C16.7 2 13.4 2 10 2 C9.67 2.99 9.34 3.98 9 5 C9 4.01 9 3.02 9 2 C6.03 1.67 3.06 1.34 0 1 C0 0.67 0 0.34 0 0 Z " fill="#EAE8EB" transform="translate(26,5)"/>
<path d="M0 0 C1.65 0.33 3.3 0.66 5 1 C4.6875 2.9375 4.6875 2.9375 4 5 C3.01 5.33 2.02 5.66 1 6 C0.34 5.67 -0.32 5.34 -1 5 C-0.67 3.35 -0.34 1.7 0 0 Z " fill="#27385F" transform="translate(39,60)"/>
</svg>
